<svg xmlns="http://www.w3.org/2000/svg" width="480" height="300" viewBox="0 0 480 300"><rect width="100%" height="100%" fill="#f6f7f9"/><text x="20" y="18" font-size="14" font-family="Segoe UI,Arial" font-weight="700" fill="#172033">Lote Passivos B?sicos - renderer real</text><g transform="translate(20 34)"><text x="0" y="0" font-size="12" font-family="Segoe UI,Arial" fill="#172033">passive.resistor / IEC</text><rect x="0" y="12" width="175" height="92" fill="#ffffdf" stroke="#b8c0cc"/><g transform="translate(20 45) scale(4.0625)"><g transform="translate(0.000,0.000)"><g transform="scale(1.000000,1.000000)"><rect x="5" y="0" width="22" height="9" stroke="#000" fill="#ffffff" stroke-width="1.5"/></g></g><line x1="3.7" y1="4.5" x2="0.0" y2="4.5" stroke="#000" stroke-width="3" stroke-linecap="round" stroke-linejoin="round"/><line x1="28.3" y1="4.5" x2="32.0" y2="4.5" stroke="#000" stroke-width="3" stroke-linecap="round" stroke-linejoin="round"/></g></g>
<g transform="translate(250 34)"><text x="0" y="0" font-size="12" font-family="Segoe UI,Arial" fill="#172033">passive.resistor / ANSI</text><rect x="0" y="12" width="175" height="92" fill="#ffffdf" stroke="#b8c0cc"/><g transform="translate(20 45) scale(4.0625)"><g transform="translate(0.000,0.000)"><g transform="scale(1.000000,1.000000)"><line x1="4" y1="4.5" x2="6" y2="0.5" stroke="#000" stroke-width="2"/><line x1="6" y1="0.5" x2="10" y2="8.5" stroke="#000" stroke-width="2"/><line x1="10" y1="8.5" x2="14" y2="0.5" stroke="#000" stroke-width="2"/><line x1="14" y1="0.5" x2="18" y2="8.5" stroke="#000" stroke-width="2"/><line x1="18" y1="8.5" x2="22" y2="0.5" stroke="#000" stroke-width="2"/><line x1="22" y1="0.5" x2="26" y2="8.5" stroke="#000" stroke-width="2"/><line x1="26" y1="8.5" x2="28" y2="4.5" stroke="#000" stroke-width="2"/></g></g><line x1="3.7" y1="4.5" x2="0.0" y2="4.5" stroke="#000" stroke-width="3" stroke-linecap="round" stroke-linejoin="round"/><line x1="28.3" y1="4.5" x2="32.0" y2="4.5" stroke="#000" stroke-width="3" stroke-linecap="round" stroke-linejoin="round"/></g></g>
<g transform="translate(20 169)"><text x="0" y="0" font-size="12" font-family="Segoe UI,Arial" fill="#172033">passive.capacitor / default</text><rect x="0" y="12" width="175" height="92" fill="#ffffdf" stroke="#b8c0cc"/><g transform="translate(20 45) scale(4.0625)"><g transform="translate(0.000,0.000)"><g transform="scale(1.000000,1.000000)"><line x1="13" y1="2" x2="13" y2="14" stroke="#000" stroke-width="3" stroke-linecap="round"/><line x1="19" y1="2" x2="19" y2="14" stroke="#000" stroke-width="3" stroke-linecap="round"/></g></g><line x1="11.3" y1="8.0" x2="0.0" y2="8.0" stroke="#000" stroke-width="3" stroke-linecap="round" stroke-linejoin="round"/><line x1="20.7" y1="8.0" x2="32.0" y2="8.0" stroke="#000" stroke-width="3" stroke-linecap="round" stroke-linejoin="round"/></g></g>
<g transform="translate(250 169)"><text x="0" y="0" font-size="12" font-family="Segoe UI,Arial" fill="#172033">passive.inductor / default</text><rect x="0" y="12" width="175" height="92" fill="#ffffdf" stroke="#b8c0cc"/><g transform="translate(20 45) scale(4.0625)"><g transform="translate(0.000,0.000)"><g transform="scale(1.000000,1.000000)"><path d="M 12.536 10.036 A 5 5 0 1 0 4.019 6.064" stroke="#000" fill="none" stroke-width="2"/><path d="M 12.464 10.036 A 5 5 0 1 1 19.536 10.036" stroke="#000" fill="none" stroke-width="2"/><path d="M 19.464 10.036 A 5 5 0 1 1 27.981 6.064" stroke="#000" fill="none" stroke-width="2"/></g></g><line x1="3.3" y1="6.0" x2="0.0" y2="6.0" stroke="#000" stroke-width="3" stroke-linecap="round" stroke-linejoin="round"/><line x1="28.7" y1="6.0" x2="32.0" y2="6.0" stroke="#000" stroke-width="3" stroke-linecap="round" stroke-linejoin="round"/></g></g></svg>