<svg xmlns="http://www.w3.org/2000/svg" viewBox="0 0 220 150" width="660" height="450">
  <style>
    .title{font:700 6px Segoe UI,Arial,sans-serif;fill:#1f2937}
    .meta{font:4px Segoe UI,Arial,sans-serif;fill:#374151}
    .pin{fill:#24313f}
  </style>
  <text x="8" y="10" class="title">switches.keypad - pacote SimulIDE IR</text>
  <text x="8" y="17" class="meta">box 76x76; 8 pinos reais; labels por keyLabels; origem visual via package.simulidePaint</text>
  <g transform="translate(20 30)">
    <rect x="-8" y="-8" width="92" height="92" fill="#ffffdf"/><line x1="-8" y1="-8" x2="-8" y2="84" stroke="#c7c7c7" stroke-width=".6"/><line x1="0" y1="-8" x2="0" y2="84" stroke="#c7c7c7" stroke-width=".6"/><line x1="8" y1="-8" x2="8" y2="84" stroke="#c7c7c7" stroke-width=".6"/><line x1="16" y1="-8" x2="16" y2="84" stroke="#c7c7c7" stroke-width=".6"/><line x1="24" y1="-8" x2="24" y2="84" stroke="#c7c7c7" stroke-width=".6"/><line x1="32" y1="-8" x2="32" y2="84" stroke="#c7c7c7" stroke-width=".6"/><line x1="40" y1="-8" x2="40" y2="84" stroke="#c7c7c7" stroke-width=".6"/><line x1="48" y1="-8" x2="48" y2="84" stroke="#c7c7c7" stroke-width=".6"/><line x1="56" y1="-8" x2="56" y2="84" stroke="#c7c7c7" stroke-width=".6"/><line x1="64" y1="-8" x2="64" y2="84" stroke="#c7c7c7" stroke-width=".6"/><line x1="72" y1="-8" x2="72" y2="84" stroke="#c7c7c7" stroke-width=".6"/><line x1="80" y1="-8" x2="80" y2="84" stroke="#c7c7c7" stroke-width=".6"/><line x1="-8" y1="-8" x2="84" y2="-8" stroke="#c7c7c7" stroke-width=".6"/><line x1="-8" y1="0" x2="84" y2="0" stroke="#c7c7c7" stroke-width=".6"/><line x1="-8" y1="8" x2="84" y2="8" stroke="#c7c7c7" stroke-width=".6"/><line x1="-8" y1="16" x2="84" y2="16" stroke="#c7c7c7" stroke-width=".6"/><line x1="-8" y1="24" x2="84" y2="24" stroke="#c7c7c7" stroke-width=".6"/><line x1="-8" y1="32" x2="84" y2="32" stroke="#c7c7c7" stroke-width=".6"/><line x1="-8" y1="40" x2="84" y2="40" stroke="#c7c7c7" stroke-width=".6"/><line x1="-8" y1="48" x2="84" y2="48" stroke="#c7c7c7" stroke-width=".6"/><line x1="-8" y1="56" x2="84" y2="56" stroke="#c7c7c7" stroke-width=".6"/><line x1="-8" y1="64" x2="84" y2="64" stroke="#c7c7c7" stroke-width=".6"/><line x1="-8" y1="72" x2="84" y2="72" stroke="#c7c7c7" stroke-width=".6"/><line x1="-8" y1="80" x2="84" y2="80" stroke="#c7c7c7" stroke-width=".6"/>
    <svg viewBox="0 0 76 76" width="76" height="76" overflow="visible"><g transform="translate(4.000,4.000)"><g transform="scale(1.000000,1.000000)"><rect x="0" y="0" width="72" height="72" rx="2" ry="2" stroke="#303840" fill="#fffef0" stroke-width="2.8"/><rect x="4" y="4" width="16" height="16" rx="2" ry="2" stroke="#303840" fill="#fffef0" stroke-width="2.4"/><text x="12" y="12.5" text-anchor="middle" font-size="9.5" dominant-baseline="central" font-family="Segoe UI,Arial,sans-serif" fill="#111820">1</text><rect x="20" y="4" width="16" height="16" rx="2" ry="2" stroke="#303840" fill="#fffef0" stroke-width="2.4"/><text x="28" y="12.5" text-anchor="middle" font-size="9.5" dominant-baseline="central" font-family="Segoe UI,Arial,sans-serif" fill="#111820">2</text><rect x="36" y="4" width="16" height="16" rx="2" ry="2" stroke="#303840" fill="#fffef0" stroke-width="2.4"/><text x="44" y="12.5" text-anchor="middle" font-size="9.5" dominant-baseline="central" font-family="Segoe UI,Arial,sans-serif" fill="#111820">3</text><rect x="52" y="4" width="16" height="16" rx="2" ry="2" stroke="#303840" fill="#fffef0" stroke-width="2.4"/><text x="60" y="12.5" text-anchor="middle" font-size="9.5" dominant-baseline="central" font-family="Segoe UI,Arial,sans-serif" fill="#111820">A</text><rect x="4" y="20" width="16" height="16" rx="2" ry="2" stroke="#303840" fill="#fffef0" stroke-width="2.4"/><text x="12" y="28.5" text-anchor="middle" font-size="9.5" dominant-baseline="central" font-family="Segoe UI,Arial,sans-serif" fill="#111820">4</text><rect x="20" y="20" width="16" height="16" rx="2" ry="2" stroke="#303840" fill="#fffef0" stroke-width="2.4"/><text x="28" y="28.5" text-anchor="middle" font-size="9.5" dominant-baseline="central" font-family="Segoe UI,Arial,sans-serif" fill="#111820">5</text><rect x="36" y="20" width="16" height="16" rx="2" ry="2" stroke="#303840" fill="#fffef0" stroke-width="2.4"/><text x="44" y="28.5" text-anchor="middle" font-size="9.5" dominant-baseline="central" font-family="Segoe UI,Arial,sans-serif" fill="#111820">6</text><rect x="52" y="20" width="16" height="16" rx="2" ry="2" stroke="#303840" fill="#fffef0" stroke-width="2.4"/><text x="60" y="28.5" text-anchor="middle" font-size="9.5" dominant-baseline="central" font-family="Segoe UI,Arial,sans-serif" fill="#111820">B</text><rect x="4" y="36" width="16" height="16" rx="2" ry="2" stroke="#303840" fill="#fffef0" stroke-width="2.4"/><text x="12" y="44.5" text-anchor="middle" font-size="9.5" dominant-baseline="central" font-family="Segoe UI,Arial,sans-serif" fill="#111820">7</text><rect x="20" y="36" width="16" height="16" rx="2" ry="2" stroke="#303840" fill="#fffef0" stroke-width="2.4"/><text x="28" y="44.5" text-anchor="middle" font-size="9.5" dominant-baseline="central" font-family="Segoe UI,Arial,sans-serif" fill="#111820">8</text><rect x="36" y="36" width="16" height="16" rx="2" ry="2" stroke="#303840" fill="#fffef0" stroke-width="2.4"/><text x="44" y="44.5" text-anchor="middle" font-size="9.5" dominant-baseline="central" font-family="Segoe UI,Arial,sans-serif" fill="#111820">9</text><rect x="52" y="36" width="16" height="16" rx="2" ry="2" stroke="#303840" fill="#fffef0" stroke-width="2.4"/><text x="60" y="44.5" text-anchor="middle" font-size="9.5" dominant-baseline="central" font-family="Segoe UI,Arial,sans-serif" fill="#111820">C</text><rect x="4" y="52" width="16" height="16" rx="2" ry="2" stroke="#303840" fill="#fffef0" stroke-width="2.4"/><text x="12" y="60.5" text-anchor="middle" font-size="9.5" dominant-baseline="central" font-family="Segoe UI,Arial,sans-serif" fill="#111820">*</text><rect x="20" y="52" width="16" height="16" rx="2" ry="2" stroke="#303840" fill="#fffef0" stroke-width="2.4"/><text x="28" y="60.5" text-anchor="middle" font-size="9.5" dominant-baseline="central" font-family="Segoe UI,Arial,sans-serif" fill="#111820">0</text><rect x="36" y="52" width="16" height="16" rx="2" ry="2" stroke="#303840" fill="#fffef0" stroke-width="2.4"/><text x="44" y="60.5" text-anchor="middle" font-size="9.5" dominant-baseline="central" font-family="Segoe UI,Arial,sans-serif" fill="#111820">#</text><rect x="52" y="52" width="16" height="16" rx="2" ry="2" stroke="#303840" fill="#fffef0" stroke-width="2.4"/><text x="60" y="60.5" text-anchor="middle" font-size="9.5" dominant-baseline="central" font-family="Segoe UI,Arial,sans-serif" fill="#111820">D</text></g></g><line x1="4.0" y1="16.0" x2="0.7" y2="16.0" stroke="#000" stroke-width="3" stroke-linecap="round" stroke-linejoin="round"/><line x1="4.0" y1="32.0" x2="0.7" y2="32.0" stroke="#000" stroke-width="3" stroke-linecap="round" stroke-linejoin="round"/><line x1="4.0" y1="48.0" x2="0.7" y2="48.0" stroke="#000" stroke-width="3" stroke-linecap="round" stroke-linejoin="round"/><line x1="4.0" y1="64.0" x2="0.7" y2="64.0" stroke="#000" stroke-width="3" stroke-linecap="round" stroke-linejoin="round"/><line x1="16.0" y1="4.0" x2="16.0" y2="0.7" stroke="#000" stroke-width="3" stroke-linecap="round" stroke-linejoin="round"/><line x1="32.0" y1="4.0" x2="32.0" y2="0.7" stroke="#000" stroke-width="3" stroke-linecap="round" stroke-linejoin="round"/><line x1="48.0" y1="4.0" x2="48.0" y2="0.7" stroke="#000" stroke-width="3" stroke-linecap="round" stroke-linejoin="round"/><line x1="64.0" y1="4.0" x2="64.0" y2="0.7" stroke="#000" stroke-width="3" stroke-linecap="round" stroke-linejoin="round"/></svg>
    <circle class="pin" cx="0" cy="16" r="2.2"/><circle class="pin" cx="0" cy="32" r="2.2"/><circle class="pin" cx="0" cy="48" r="2.2"/><circle class="pin" cx="0" cy="64" r="2.2"/><circle class="pin" cx="16" cy="0" r="2.2"/><circle class="pin" cx="32" cy="0" r="2.2"/><circle class="pin" cx="48" cy="0" r="2.2"/><circle class="pin" cx="64" cy="0" r="2.2"/>
  </g>
</svg>